# xmcd
# Copyright (C) 1995-1998 Ti Kan
#
# Track frame offsets:
#       150
#       10751
#       31781
#       46695
#       60851
#       73028
#       89440
#       103217
#       117814
#       132724
#       146620
#       169334
#
# Disc length: 2435 seconds
#
# Revision: 1
# Processed by: cddbd v1.4PL0 Copyright (c) Steve Scherf et al.
# Submitted via: CD-Transfer v1.0
#
DISCID=9f09810c
DTITLE=Stip - Unlimited
DYEAR=2003
DGENRE=
TTITLE0=Oh Woman
TTITLE1=Down In America
TTITLE2=On The Way To Distant Lands
TTITLE3=Why Don't You Go
TTITLE4=When She Cries
TTITLE5=I've Lost The Touch Of The Air
TTITLE6=You Don't Understand Me
TTITLE7=A Lady Thought And Thought
TTITLE8=Give
TTITLE9=My Paradise
TTITLE10=This Is Me
TTITLE11=Carry Me Away
EXTD=
EXTT0=
EXTT1=
EXTT2=
EXTT3=
EXTT4=
EXTT5=
EXTT6=
EXTT7=
EXTT8=
EXTT9=
EXTT10=
EXTT11=
PLAYORDER=
